name C:/MyDriveSym/Projects/mobilecap/Data\Session20210816_0002\mocap\ForceDataProcessed\walkingTS2_forces.mot
datacolumns 19
datarows 22
range 0.90450000 0.91500000
endheader 
time	R_ground_force_vx	R_ground_force_vy	R_ground_force_vz	R_ground_force_px	R_ground_force_py	R_ground_force_pz	R_ground_torque_x	R_ground_torque_y	R_ground_torque_z	L_ground_force_vx	L_ground_force_vy	L_ground_force_vz	L_ground_force_px	L_ground_force_py	L_ground_force_pz	L_ground_torque_x	L_ground_torque_y	L_ground_torque_z	
          0.90450000	          0.00000000	          0.00000000	          0.00000000	          0.44220900	          0.00000000	         -0.12264800	          0.00000000	          0.00000000	          0.00000000	        -79.24223700	        645.38915900	         26.21395700	          0.86323200	          0.00600000	         -0.23950900	          0.00000000	          0.75590300	          0.00000000	
          0.90500000	          0.00000000	          0.00000000	          0.00000000	          0.44312500	          0.00000000	         -0.12275100	          0.00000000	          0.00000000	          0.00000000	        -79.08376900	        645.51962500	         26.21244400	          0.86336600	          0.00600000	         -0.23954900	          0.00000000	          0.75181200	          0.00000000	
          0.90550000	          0.00000000	          0.00000000	          0.00000000	          0.44404100	          0.00000000	         -0.12285300	          0.00000000	          0.00000000	          0.00000000	        -78.92562700	        645.64669900	         26.21010200	          0.86350000	          0.00600000	         -0.23958900	          0.00000000	          0.74778700	          0.00000000	
          0.90600000	          0.00000000	          0.00000000	          0.00000000	          0.44495700	          0.00000000	         -0.12295600	          0.00000000	          0.00000000	          0.00000000	        -78.76781600	        645.77040400	         26.20692900	          0.86363500	          0.00600000	         -0.23962800	          0.00000000	          0.74383000	          0.00000000	
          0.90650000	          0.00000000	          0.00000000	          0.00000000	          0.44587300	          0.00000000	         -0.12305900	          0.00000000	          0.00000000	          0.00000000	        -78.61034700	        645.89076400	         26.20292200	          0.86376900	          0.00600000	         -0.23966800	          0.00000000	          0.73994100	          0.00000000	
          0.90700000	          0.00000000	          0.00000000	          0.00000000	          0.44678900	          0.00000000	         -0.12316100	          0.00000000	          0.00000000	          0.00000000	        -78.45322500	        646.00780400	         26.19808000	          0.86390300	          0.00600000	         -0.23970700	          0.00000000	          0.73612100	          0.00000000	
          0.90750000	          0.00000000	          0.00000000	          0.00000000	          0.44770500	          0.00000000	         -0.12326400	          0.00000000	          0.00000000	          0.00000000	        -78.29645900	        646.12154800	         26.19240000	          0.86403700	          0.00600000	         -0.23974600	          0.00000000	          0.73237100	          0.00000000	
          0.90800000	          0.00000000	          0.00000000	          0.00000000	          0.44862100	          0.00000000	         -0.12336600	          0.00000000	          0.00000000	          0.00000000	        -78.14005600	        646.23202300	         26.18588100	          0.86417100	          0.00600000	         -0.23978500	          0.00000000	          0.72869100	          0.00000000	
          0.90850000	          0.00000000	          0.00000000	          0.00000000	          0.44953700	          0.00000000	         -0.12346900	          0.00000000	          0.00000000	          0.00000000	        -77.98402200	        646.33925200	         26.17852000	          0.86430500	          0.00600000	         -0.23982400	          0.00000000	          0.72508200	          0.00000000	
          0.90900000	          0.00000000	          0.00000000	          0.00000000	          0.45045300	          0.00000000	         -0.12357200	          0.00000000	          0.00000000	          0.00000000	        -77.82836600	        646.44326100	         26.17031500	          0.86443900	          0.00600000	         -0.23986300	          0.00000000	          0.72154600	          0.00000000	
          0.90950000	          0.00000000	          0.00000000	          0.00000000	          0.45136900	          0.00000000	         -0.12367400	          0.00000000	          0.00000000	          0.00000000	        -77.67309400	        646.54407700	         26.16126600	          0.86457300	          0.00600000	         -0.23990100	          0.00000000	          0.71808200	          0.00000000	
          0.91000000	          0.00000000	          0.00000000	          0.00000000	          0.45228600	          0.00000000	         -0.12377700	          0.00000000	          0.00000000	          0.00000000	        -77.51821200	        646.64172300	         26.15136900	          0.86470700	          0.00600000	         -0.23993900	          0.00000000	          0.71469200	          0.00000000	
          0.91050000	          0.00000000	          0.00000000	          0.00000000	          0.45320200	          0.00000000	         -0.12388000	          0.00000000	          0.00000000	          0.00000000	        -77.36372700	        646.73622800	         26.14062400	          0.86484000	          0.00600000	         -0.23997800	          0.00000000	          0.71137500	          0.00000000	
          0.91100000	          0.00000000	          0.00000000	          0.00000000	          0.45411800	          0.00000000	         -0.12398200	          0.00000000	          0.00000000	          0.00000000	        -77.20964500	        646.82761500	         26.12902900	          0.86497400	          0.00600000	         -0.24001500	          0.00000000	          0.70813300	          0.00000000	
          0.91150000	          0.00000000	          0.00000000	          0.00000000	          0.45503400	          0.00000000	         -0.12408500	          0.00000000	          0.00000000	          0.00000000	        -77.05597300	        646.91591300	         26.11658400	          0.86510700	          0.00600000	         -0.24005300	          0.00000000	          0.70496700	          0.00000000	
          0.91200000	          0.00000000	          0.00000000	          0.00000000	          0.45595000	          0.00000000	         -0.12418700	          0.00000000	          0.00000000	          0.00000000	        -76.90271500	        647.00114800	         26.10328500	          0.86524100	          0.00600000	         -0.24009100	          0.00000000	          0.70187600	          0.00000000	
          0.91250000	          0.00000000	          0.00000000	          0.00000000	          0.45686600	          0.00000000	         -0.12429000	          0.00000000	          0.00000000	          0.00000000	        -76.74987900	        647.08334500	         26.08913400	          0.86537400	          0.00600000	         -0.24012800	          0.00000000	          0.69886200	          0.00000000	
          0.91300000	          0.00000000	          0.00000000	          0.00000000	          0.45778200	          0.00000000	         -0.12439300	          0.00000000	          0.00000000	          0.00000000	        -76.59747000	        647.16253300	         26.07412800	          0.86550700	          0.00600000	         -0.24016500	          0.00000000	          0.69592600	          0.00000000	
          0.91350000	          0.00000000	          0.00000000	          0.00000000	          0.45869800	          0.00000000	         -0.12449500	          0.00000000	          0.00000000	          0.00000000	        -76.44549200	        647.23873700	         26.05826600	          0.86564000	          0.00600000	         -0.24020200	          0.00000000	          0.69306700	          0.00000000	
          0.91400000	          0.00000000	          0.00000000	          0.00000000	          0.45961400	          0.00000000	         -0.12459800	          0.00000000	          0.00000000	          0.00000000	        -76.29395200	        647.31198600	         26.04154900	          0.86577300	          0.00600000	         -0.24023900	          0.00000000	          0.69028800	          0.00000000	
          0.91450000	          0.00000000	          0.00000000	          0.00000000	          0.46053000	          0.00000000	         -0.12470100	          0.00000000	          0.00000000	          0.00000000	        -76.14285400	        647.38230600	         26.02397500	          0.86590600	          0.00600000	         -0.24027500	          0.00000000	          0.68758700	          0.00000000	
          0.91500000	          0.00000000	          0.00000000	          0.00000000	          0.46144700	          0.00000000	         -0.12480300	          0.00000000	          0.00000000	          0.00000000	        -75.99220300	        647.44972500	         26.00554400	          0.86603900	          0.00600000	         -0.24031200	          0.00000000	          0.68496600	          0.00000000	
